<svg width="24" height="24" viewBox="0 0 24 24" fill="none" xmlns="http://www.w3.org/2000/svg">
<path d="M21.3333 0H2.66667C1.19391 0 0 1.19391 0 2.66667V21.3333C0 22.8061 1.19391 24 2.66667 24H21.3333C22.8061 24 24 22.8061 24 21.3333V2.66667C24 1.19391 22.8061 0 21.3333 0Z" fill="#B1E0EC"/>
<path d="M0.729902 9.8C0.729902 8.78 1.1499 7.95 1.9899 7.31C2.8399 6.67 3.9499 6.35 5.3199 6.35C6.6999 6.35 7.8249 6.685 8.6949 7.355C9.5749 8.025 10.0149 8.725 10.0149 9.455C10.0149 9.545 9.9799 9.625 9.9099 9.695C9.8499 9.755 9.7799 9.785 9.6999 9.785H6.6999C6.4699 9.785 6.2599 9.7 6.0699 9.53C5.8799 9.36 5.6249 9.275 5.3049 9.275C4.8249 9.275 4.5849 9.415 4.5849 9.695C4.5849 9.845 4.6999 9.97 4.9299 10.07C5.1699 10.17 5.6099 10.26 6.2499 10.34C7.7399 10.53 8.7999 10.88 9.4299 11.39C10.0699 11.89 10.3899 12.655 10.3899 13.685C10.3899 14.705 9.9199 15.54 8.9799 16.19C8.0499 16.83 6.8299 17.15 5.3199 17.15C3.8099 17.15 2.6249 16.84 1.7649 16.22C0.904902 15.6 0.474902 14.845 0.474902 13.955C0.474902 13.865 0.504902 13.79 0.564902 13.73C0.634902 13.66 0.714902 13.625 0.804902 13.625H3.6549C3.8649 13.625 4.0949 13.725 4.3449 13.925C4.6049 14.125 4.9599 14.225 5.4099 14.225C6.1599 14.225 6.5349 14.085 6.5349 13.805C6.5349 13.625 6.3999 13.49 6.1299 13.4C5.8599 13.3 5.3499 13.2 4.5999 13.1C2.0199 12.76 0.729902 11.66 0.729902 9.8ZM20.2254 6.5H22.5954C22.7054 6.5 22.8004 6.54 22.8804 6.62C22.9604 6.7 23.0004 6.795 23.0004 6.905V16.595C23.0004 16.705 22.9604 16.8 22.8804 16.88C22.8004 16.96 22.7054 17 22.5954 17H19.8804C19.7704 17 19.6754 16.96 19.5954 16.88C19.5154 16.8 19.4754 16.705 19.4754 16.595V12.485L18.4854 14.105C18.3254 14.355 18.1404 14.48 17.9304 14.48H16.8804C16.6704 14.48 16.4854 14.355 16.3254 14.105L15.3354 12.485V16.595C15.3354 16.705 15.2954 16.8 15.2154 16.88C15.1354 16.96 15.0404 17 14.9304 17H12.2154C12.1054 17 12.0104 16.96 11.9304 16.88C11.8504 16.8 11.8104 16.705 11.8104 16.595V6.905C11.8104 6.795 11.8504 6.7 11.9304 6.62C12.0104 6.54 12.1054 6.5 12.2154 6.5H14.5854C14.8654 6.5 15.0804 6.635 15.2304 6.905L17.4054 10.505L19.5804 6.905C19.7304 6.635 19.9454 6.5 20.2254 6.5Z" fill="#5A5A5A"/>
</svg>
